<svg width="32" height="33" viewBox="0 0 32 33" fill="none" xmlns="http://www.w3.org/2000/svg">
<path d="M21.7143 8.5C21.7143 7.17392 21.1122 5.90215 20.0406 4.96447C18.969 4.02678 17.5155 3.5 16 3.5C14.4845 3.5 13.031 4.02678 11.9594 4.96447C10.8878 5.90215 10.2857 7.17392 10.2857 8.5C10.2857 9.82608 10.8878 11.0979 11.9594 12.0355C13.031 12.9732 14.4845 13.5 16 13.5C17.5155 13.5 18.969 12.9732 20.0406 12.0355C21.1122 11.0979 21.7143 9.82608 21.7143 8.5ZM6.85714 8.5C6.85714 6.37827 7.8204 4.34344 9.53502 2.84315C11.2496 1.34285 13.5752 0.5 16 0.5C18.4248 0.5 20.7504 1.34285 22.465 2.84315C24.1796 4.34344 25.1429 6.37827 25.1429 8.5C25.1429 10.6217 24.1796 12.6566 22.465 14.1569C20.7504 15.6571 18.4248 16.5 16 16.5C13.5752 16.5 11.2496 15.6571 9.53502 14.1569C7.8204 12.6566 6.85714 10.6217 6.85714 8.5ZM3.52143 29.5H28.4786C27.8429 25.5437 23.9571 22.5 19.2643 22.5H12.7357C8.04286 22.5 4.15714 25.5437 3.52143 29.5ZM0 30.6437C0 24.4875 5.7 19.5 12.7357 19.5H19.2643C26.3 19.5 32 24.4875 32 30.6437C32 31.6687 31.05 32.5 29.8786 32.5H2.12143C0.95 32.5 0 31.6687 0 30.6437Z" fill="white"/>
</svg>
