<svg width="48" height="48" viewBox="0 0 48 48" fill="none" xmlns="http://www.w3.org/2000/svg">
<path fill-rule="evenodd" clip-rule="evenodd" d="M44 38C44 41.3137 41.3137 44 38 44H10C6.68629 44 4 41.3137 4 38V10C4 6.68629 6.68629 4 10 4H38C41.3137 4 44 6.68629 44 10V38ZM29.4 17.42L22.84 24L29.4 30.6C29.9602 31.1714 30.126 32.0217 29.8213 32.7617C29.5166 33.5017 28.8001 33.9888 28 34C27.4655 33.9978 26.9541 33.7817 26.58 33.4L18.58 25.4C17.8046 24.6199 17.8046 23.3601 18.58 22.58L26.58 14.58C27.3642 13.8013 28.6313 13.8058 29.41 14.59C30.1887 15.3742 30.1842 16.6413 29.4 17.42ZM38 8C39.1046 8 40 8.89543 40 10V38C40 39.1046 39.1046 40 38 40H10C8.89543 40 8 39.1046 8 38V10C8 8.89543 8.89543 8 10 8H38Z" fill="white"/>
</svg>
