<svg width="24" height="26" viewBox="0 0 24 26" fill="none" xmlns="http://www.w3.org/2000/svg">
<path d="M4.72448 25.5C4.5243 25.5 4.33231 25.4194 4.19076 25.2759C4.04921 25.1324 3.96969 24.9378 3.96969 24.7348C3.96969 24.5319 4.04921 24.3373 4.19076 24.1938C4.33231 24.0503 4.5243 23.9697 4.72448 23.9697H7.2762V23.2263C7.2762 21.7875 8.50536 20.6165 10.0163 20.6165H11.2454V17.415C9.61178 17.2554 8.06549 16.5929 6.81411 15.5165C5.56274 14.4401 4.66621 13.0013 4.24488 11.3934C3.08155 11.2718 2.00389 10.7176 1.21996 9.83787C0.436024 8.95811 0.00140292 7.81513 0 6.62959C0.00102686 5.7155 0.359722 4.83917 0.997379 4.19286C1.63504 3.54655 2.49958 3.18307 3.40129 3.18217H4.05617C4.22793 2.42111 4.6491 1.74154 5.25095 1.2544C5.85279 0.767265 6.59977 0.501321 7.36992 0.5H16.6307C17.4007 0.50137 18.1476 0.767331 18.7492 1.25448C19.3509 1.74163 19.7719 2.42119 19.9434 3.18217H20.5992C21.5008 3.18327 22.3652 3.54681 23.0027 4.19309C23.6403 4.83937 23.9989 5.71561 24 6.62959C23.9986 7.81512 23.564 8.9581 22.7801 9.83787C21.9962 10.7176 20.9186 11.2718 19.7552 11.3934C19.3338 13.0012 18.4372 14.44 17.1859 15.5163C15.9345 16.5927 14.3883 17.2552 12.7547 17.415V20.6165H13.9855C15.4959 20.6165 16.725 21.7876 16.725 23.2263V23.9697H19.2772C19.4774 23.9697 19.6694 24.0503 19.8109 24.1938C19.9525 24.3373 20.032 24.5319 20.032 24.7348C20.032 24.9378 19.9525 25.1324 19.8109 25.2759C19.6694 25.4194 19.4774 25.5 19.2772 25.5H4.72448ZM8.78663 23.2258V23.9692H15.2148V23.2258C15.2148 22.6407 14.6521 22.1466 13.9853 22.1466H10.0167C9.34979 22.1469 8.78663 22.641 8.78663 23.2261V23.2258ZM5.47938 3.947V9.31134C5.47938 11.0646 6.16644 12.7461 7.38943 13.9859C8.61241 15.2256 10.2711 15.9221 12.0007 15.9221C13.7302 15.9221 15.389 15.2256 16.6119 13.9859C17.8349 12.7461 18.522 11.0646 18.522 9.31134V3.947C18.5214 3.4388 18.322 2.95155 17.9676 2.59218C17.6131 2.23281 17.1325 2.03067 16.6311 2.03008H7.37055C6.8691 2.03053 6.38832 2.23267 6.03375 2.59213C5.67917 2.95158 5.4798 3.43898 5.47938 3.94731V3.947ZM20.032 9.51792C20.0317 9.57318 20.0255 9.62825 20.0133 9.68212C20.0119 9.72145 20.0099 9.76022 20.0078 9.79901C20.7134 9.63139 21.3426 9.22715 21.7933 8.6518C22.244 8.07644 22.4899 7.36365 22.4912 6.62894C22.4905 6.12074 22.2911 5.63356 21.9366 5.27422C21.5821 4.91488 21.1015 4.71274 20.6002 4.71215H20.032V9.51792ZM1.51042 6.62928C1.51166 7.36399 1.75756 8.07675 2.20829 8.65211C2.65901 9.22746 3.28816 9.63168 3.9938 9.79932C3.99171 9.76053 3.98972 9.72133 3.98825 9.68244C3.9762 9.62855 3.96998 9.57348 3.96969 9.51823V4.71256H3.40192C2.90054 4.71304 2.4198 4.9151 2.0652 5.27443C1.7106 5.63375 1.51109 6.12102 1.51042 6.62928Z" fill="white"/>
</svg>
