<svg width="33" height="33" viewBox="0 0 33 33" fill="none" xmlns="http://www.w3.org/2000/svg">
<path d="M32.4902 16.4688C32.4902 17.5938 31.6569 18.475 30.7125 18.475H28.9347L28.9736 28.4875C28.9736 28.6562 28.9625 28.825 28.9458 28.9937V30C28.9458 31.3813 27.9514 32.5 26.7236 32.5H25.8347C25.7736 32.5 25.7125 32.5 25.6514 32.4937C25.5736 32.5 25.4958 32.5 25.418 32.5H23.6125H22.2791C21.0514 32.5 20.0569 31.3813 20.0569 30V28.5V24.5C20.0569 23.3937 19.2625 22.5 18.2791 22.5H14.7236C13.7402 22.5 12.9458 23.3937 12.9458 24.5V28.5V30C12.9458 31.3813 11.9514 32.5 10.7236 32.5H9.39025H7.61802C7.53469 32.5 7.45136 32.4937 7.36802 32.4875C7.30136 32.4937 7.23469 32.5 7.16802 32.5H6.27914C5.05136 32.5 4.05691 31.3813 4.05691 30V23C4.05691 22.9438 4.05691 22.8813 4.06247 22.825V18.475H2.27914C1.27914 18.475 0.501358 17.6 0.501358 16.4688C0.501358 15.9062 0.668025 15.4062 1.05691 14.9688L15.3014 1C15.6902 0.5625 16.1347 0.5 16.5236 0.5C16.9125 0.5 17.3569 0.625 17.6902 0.9375L31.8791 14.9688C32.3236 15.4062 32.5458 15.9062 32.4902 16.4688Z" fill="white"/>
</svg>
