<svg width="32" height="33" viewBox="0 0 32 33" fill="none" xmlns="http://www.w3.org/2000/svg">
<path d="M1.54839 32.5C0.690323 32.5 0 31.6769 0 30.6538V26.9615C0 25.9385 0.690323 25.1154 1.54839 25.1154H4.64516C5.50323 25.1154 6.19355 25.9385 6.19355 26.9615V30.6538C6.19355 31.6769 5.50323 32.5 4.64516 32.5H1.54839ZM11.3548 31.2692C10.2129 31.2692 9.29032 30.1692 9.29032 28.8077C9.29032 27.4462 10.2129 26.3462 11.3548 26.3462H29.9355C31.0774 26.3462 32 27.4462 32 28.8077C32 30.1692 31.0774 31.2692 29.9355 31.2692H11.3548ZM11.3548 18.9615C10.2129 18.9615 9.29032 17.8615 9.29032 16.5C9.29032 15.1385 10.2129 14.0385 11.3548 14.0385H29.9355C31.0774 14.0385 32 15.1385 32 16.5C32 17.8615 31.0774 18.9615 29.9355 18.9615H11.3548ZM11.3548 6.65384C10.2129 6.65384 9.29032 5.55385 9.29032 4.19231C9.29032 2.83077 10.2129 1.73077 11.3548 1.73077H29.9355C31.0774 1.73077 32 2.83077 32 4.19231C32 5.55385 31.0774 6.65384 29.9355 6.65384H11.3548ZM0 18.3462V14.6538C0 13.6308 0.690323 12.8077 1.54839 12.8077H4.64516C5.50323 12.8077 6.19355 13.6308 6.19355 14.6538V18.3462C6.19355 19.3692 5.50323 20.1923 4.64516 20.1923H1.54839C0.690323 20.1923 0 19.3692 0 18.3462ZM1.54839 7.88461C0.690323 7.88461 0 7.06154 0 6.03846V2.34615C0 1.32308 0.690323 0.5 1.54839 0.5H4.64516C5.50323 0.5 6.19355 1.32308 6.19355 2.34615V6.03846C6.19355 7.06154 5.50323 7.88461 4.64516 7.88461H1.54839Z" fill="white"/>
</svg>
