<svg width="32" height="33" viewBox="0 0 32 33" fill="none" xmlns="http://www.w3.org/2000/svg">
<path d="M31.414 18.1143C32.1953 17.2214 32.1953 15.7714 31.414 14.8786L23.4136 5.73571C22.6324 4.84286 21.3635 4.84286 20.5823 5.73571C19.801 6.62857 19.801 8.07857 20.5823 8.97143L25.17 14.2143H12.0006C10.8943 14.2143 10.0005 15.2357 10.0005 16.5C10.0005 17.7643 10.8943 18.7857 12.0006 18.7857H25.17L20.5823 24.0286C19.801 24.9214 19.801 26.3714 20.5823 27.2643C21.3635 28.1571 22.6324 28.1571 23.4136 27.2643L31.414 18.1214V18.1143ZM10.0005 5.07143C11.1068 5.07143 12.0006 4.05 12.0006 2.78571C12.0006 1.52143 11.1068 0.5 10.0005 0.5H6.00029C2.68763 0.5 0 3.57143 0 7.35714V25.6429C0 29.4286 2.68763 32.5 6.00029 32.5H10.0005C11.1068 32.5 12.0006 31.4786 12.0006 30.2143C12.0006 28.95 11.1068 27.9286 10.0005 27.9286H6.00029C4.89399 27.9286 4.0002 26.9071 4.0002 25.6429V7.35714C4.0002 6.09286 4.89399 5.07143 6.00029 5.07143H10.0005Z" fill="white"/>
</svg>
